<svg xmlns="http://www.w3.org/2000/svg" width="317.46" height="241.09" viewBox="0 0 317.46 241.09"><defs><style>.cls-1{fill:#fff;}.cls-2{fill:none;}</style></defs><title>Asset 3</title><g id="Layer_2" data-name="Layer 2"><g id="Layer_1-2" data-name="Layer 1"><path class="cls-1" d="M19.85,126l13.47-5.33A29,29,0,0,0,44.07,113q5.45-5.9,7.41-6.67,3.5-1.39,5,2.39,1.17,3,4,27.11,2.74,23.85,4.69,28.77,1.07,2.7,3,1.95,2.89-1.15,8.24-9.89l.75-.06L78.51,158l.12.89q-10.73,18.35-15.45,20.22-4.31,1.71-6.63-4.15Q55,171.1,53.81,159.64q-3.21-31.14-5.88-37.88-1.2-3-4.3-1.8-1.69.67-4.83,4.72A20.65,20.65,0,0,1,35.68,128q-6.86,2.56-14.15,5.6.47,3.56,1.88,11.65l4.14,24.23q3,17.5,4,27.36a69.55,69.55,0,0,1-.76,19.43,39.08,39.08,0,0,1-6.28,15.93q-4.53,6.36-9.18,8.2a11.27,11.27,0,0,1-5.29.61,107.32,107.32,0,0,0-1.21-12.3l1.52-1.07a9.06,9.06,0,0,0,8.43,1q6.6-2.62,6.9-12.59t-6.94-44.2l-7.27-34.29q-9.9,3.92-10.41,4.2l-.75-.33L0,139.26l.24-.56a122.27,122.27,0,0,0,9.46-8.58L6.67,113a21.9,21.9,0,0,1,.93-12A88.7,88.7,0,0,1,15.08,87.2q5.37-8.48,9.21-10a16.16,16.16,0,0,1,6.37-1Q32.29,85.8,33,89l-1.4,1.18q-4.11-4.29-9.84-2A8.72,8.72,0,0,0,16,94.53Q15,99,17.19,111ZM51,75.65a11.35,11.35,0,0,1,.46,7.57,7.41,7.41,0,0,1-4.59,5Q41.38,90.46,39,84.53a10,10,0,0,1-.14-7.15,7.82,7.82,0,0,1,4.68-5Q48.89,70.26,51,75.65Z"/><path class="cls-1" d="M104,204.82l-1.13-.49-1.63-10q-1.54-9.6-6.08-32.66l-6.05-30.25Q87.56,124.23,86,118.3L83.72,110q-.64-2.39-1-3.2-.91-2.29-2.72-1.57a7.85,7.85,0,0,0-2.41,2.08q-1.53,1.74-6.49,8.69l-1,.08L69,114.84l-.2-1.09a103.09,103.09,0,0,1,9.35-14.07Q83,93.52,86.2,92.27t4.35,1.94q1.47,3.71,5.1,23.7,2.62-15.61,9.47-25.68t13.51-12.71a6.32,6.32,0,0,1,5.2-.15,14.19,14.19,0,0,1,4.69,4.46,34.87,34.87,0,0,1,4.3,7.92,58.53,58.53,0,0,1,3.42,15,78.27,78.27,0,0,1,.33,15.69,43.44,43.44,0,0,1-2.9,12.37,48.8,48.8,0,0,1-6.32,10.91,92,92,0,0,1-7.27,8.69,17.85,17.85,0,0,1-5.71,4.28,16.49,16.49,0,0,1-3.58,1q-1.76.27-6.15.6l8.61,38.28Q106.32,202.51,104,204.82ZM103,152.17a25,25,0,0,0,12.8-1.33,17.41,17.41,0,0,0,7.78-5.73q2.8-3.76,3.63-13.36a86.18,86.18,0,0,0-.37-18.75,65.6,65.6,0,0,0-3.69-15.41q-2.19-5.52-4-7a4.1,4.1,0,0,0-4.41-.51A18.44,18.44,0,0,0,108,95.1q-3.35,3.74-6,11a55.52,55.52,0,0,0-3.21,16.19,70.11,70.11,0,0,0,1.08,14.53Z"/><path class="cls-1" d="M181.7,203.32l-1.31-.79-8.69-42.75c-1-6.4-4.25-20.3-7.27-35.68l-6.05-30.25q-1.59-7.16-3.16-13.09L153,72.46q-.64-2.4-1-3.21-.91-2.29-2.73-1.57a7.87,7.87,0,0,0-2.41,2.08q-1.53,1.74-6.49,8.69l-1,.08-1.19-1.24L138,76.2a103.08,103.08,0,0,1,9.35-14.07q4.93-6.16,8.09-7.41t4.35,1.94q1.47,3.71,5.1,23.7,2.62-15.61,9.47-25.69T187.86,42a6.32,6.32,0,0,1,5.2-.15,14.15,14.15,0,0,1,4.69,4.46,34.86,34.86,0,0,1,4.3,7.92,58.54,58.54,0,0,1,3.42,15,78.29,78.29,0,0,1,.33,15.69,43.38,43.38,0,0,1-2.9,12.37,48.74,48.74,0,0,1-6.32,10.91,91.78,91.78,0,0,1-7.27,8.69,17.81,17.81,0,0,1-5.71,4.28,16.49,16.49,0,0,1-3.58,1q-1.76.27-6.15.6l17,74.32Q184,201,181.7,203.32Zm-9.49-88.69A25,25,0,0,0,185,113.3a17.4,17.4,0,0,0,7.78-5.73q2.8-3.76,3.63-13.36a86.17,86.17,0,0,0-.37-18.75A65.6,65.6,0,0,0,192.37,60q-2.19-5.52-4-7.05a4.1,4.1,0,0,0-4.41-.51,18.44,18.44,0,0,0-6.72,5.08q-3.35,3.74-6,11A55.53,55.53,0,0,0,168,84.76,70,70,0,0,0,169,99.29Z"/><path class="cls-1" d="M219.86,0l2.26.59q1.72,12,9.34,55.68,5.42,31.21,6.82,37.12a21,21,0,0,0,.72,2.21,3.62,3.62,0,0,0,1.55,2,2.07,2.07,0,0,0,1.8.22q2.22-.88,7.42-9.4l1.39-2.19.75-.06,1.43,1.46.12.89q-11.1,19.59-16.76,21.83a3.74,3.74,0,0,1-3.66-.3,7.73,7.73,0,0,1-2.68-3.73,40.48,40.48,0,0,1-2-7.52q-.85-4.69-4.83-29.53-3.83-23.65-6.19-35.11l-3-14.41a28,28,0,0,0-1.18-4.36,2.45,2.45,0,0,0-1.9-1.74,8.5,8.5,0,0,0-3.91.85l-5.68,2.17-.75-.33-.47-1.77.3-.82A112.74,112.74,0,0,0,219.86,0Z"/><path class="cls-1" d="M304.71,64.35l1.41,1.39.21.93q-11,20.57-22.54,25.13a17.66,17.66,0,0,1-8.49,1,14.2,14.2,0,0,1-8.16-3.59,23.63,23.63,0,0,1-5.81-9.07A68.69,68.69,0,0,1,257,61.07q-1-10.64,0-16.29a32.71,32.71,0,0,1,5-11.88,81.18,81.18,0,0,1,8-10.67,23.73,23.73,0,0,1,8.76-6.31,13.57,13.57,0,0,1,9.42-.61,9.91,9.91,0,0,1,6.2,6.2,19,19,0,0,1,.89,11.3q-1.27,5.84-7.86,13.2a94.73,94.73,0,0,1-17,14.52l-2.87,2a58.74,58.74,0,0,0,2.92,11.31q2.4,6.06,6.51,8.57a9.59,9.59,0,0,0,9,.58q9.09-3.6,17.88-18.61ZM266.76,59a66.7,66.7,0,0,0,11.85-9.33,25.06,25.06,0,0,0,6.89-11.14A16.49,16.49,0,0,0,285.24,28q-1.44-3.64-4-4.67a6.55,6.55,0,0,0-5.07,0,18.72,18.72,0,0,0-6,4.25,16.92,16.92,0,0,0-4.39,8.59Q264.61,41.58,266.76,59Z"/><path class="cls-1" d="M317.46,89.81c0-.3-.37-.76-.66-.46l.25,1Z"/><path class="cls-1" d="M314.21,89.56a2.28,2.28,0,0,0,.51,2.29c-.07-1.06.22-.77.09-2a.56.56,0,0,1,.89.28c0-.29.65-.12.52-.77-.83-.41-1.42-.1-1.7.79C314.28,90,314.28,89.74,314.21,89.56Z"/><path class="cls-1" d="M279.67,107.72l.28,0A.47.47,0,0,0,279.67,107.72Z"/><path class="cls-1" d="M258.47,119.33c.15-.11.16-.24.13-.32C258.48,119.15,258.39,119.27,258.47,119.33Z"/><path class="cls-1" d="M254.35,120.44l.24-.06C254.47,120.35,254.36,120.35,254.35,120.44Z"/><path class="cls-1" d="M279.67,107.72l-.72.05C279.08,108.07,279.36,107.81,279.67,107.72Z"/><path class="cls-1" d="M310.75,94.32a.84.84,0,0,0,.17-.4,2.59,2.59,0,0,1-.23.26Z"/><path class="cls-1" d="M288.49,101.7l.17-.1a2.91,2.91,0,0,0-.06-.43Z"/><path class="cls-1" d="M295.49,97.48c-.18.06.19.82.31,1.18a.8.8,0,0,1,.06-.7A2.28,2.28,0,0,0,295.49,97.48Z"/><path class="cls-1" d="M307.46,92.28l.14-.22C307.57,92.13,307.5,92.21,307.46,92.28Z"/><path class="cls-1" d="M283.33,104.46a1,1,0,0,0-.21-.22A.7.7,0,0,0,283.33,104.46Z"/><path class="cls-1" d="M88.51,224.26c0-.06-.05-.08-.08-.13S88.45,224.29,88.51,224.26Z"/><path class="cls-1" d="M78.21,225.38l.09-.1c-.07-.15-.13-.29-.21-.42Z"/><path class="cls-1" d="M247.27,123.28h0C247.44,123.1,247.35,123.17,247.27,123.28Z"/><path class="cls-1" d="M187.56,158.47c1.06.26-.62,1.48.82,1.61C188.12,159.85,188.66,158.41,187.56,158.47Z"/><path class="cls-1" d="M310.52,94.33a2.11,2.11,0,0,1-.29.18A.6.6,0,0,0,310.52,94.33Z"/><path class="cls-1" d="M188.38,160.08h0Z"/><path class="cls-1" d="M232.46,132.42a1.11,1.11,0,0,0,.34.23A.72.72,0,0,0,232.46,132.42Z"/><path class="cls-1" d="M244.29,127,244,127A.75.75,0,0,0,244.29,127Z"/><path class="cls-1" d="M227.23,136.81c-.18,0-.29,0-.44.18l.11.05C226.92,136.9,227,136.8,227.23,136.81Z"/><path class="cls-1" d="M221.17,140.32a1.56,1.56,0,0,0,.2.08l.17-.15Z"/><path class="cls-1" d="M106.74,213.27a2.81,2.81,0,0,1-.66-.49C106.47,213.24,105.69,213.94,106.74,213.27Z"/><path class="cls-1" d="M310.51,93.92c.07.2.07.33,0,.42l.18-.16A.47.47,0,0,0,310.51,93.92Z"/><path class="cls-1" d="M230.31,142.72l-1,.45A4.58,4.58,0,0,0,230.31,142.72Z"/><path class="cls-1" d="M150.19,188l-.17.22A.23.23,0,0,0,150.19,188Z"/><path class="cls-1" d="M226.49,144.92a1.66,1.66,0,0,0-.83-.19.73.73,0,0,0,0,.25Z"/><path class="cls-1" d="M106.07,212.77h0Z"/><path class="cls-1" d="M100.72,218.17c.93-.51-.11-1.19-.23-1.85.94-.91.92.41,1.57.69.54-.65.55-1.83,1.09-2.09.13.14.26.14.26.4.28-1.18,2.13-1.28,2.42-2.72a.71.71,0,0,1,.25.17,4.48,4.48,0,0,1-.89-1.24c.4-.25.41-1,.93-.51-.26.13-.14.39-.14.66l.27-.52c.91.68-.41.65,0,1.32.67-.78,1.22-2.09,2-2.21.64.8-1.34,1.17,0,1.46L107,212c1.57,1-.66.25.9,1.34,1.46-.5,1.21-1.3,2.67-1.8,0-.66-.52-.67-.5-1.33,1.35-2,2.75,1.37,3.43-.59,0-.79-.49-2,.82-2l.24,1.19c1.33-.63-.1-1.85,1.62-2,0,.53-.81.91-.55.91,1.32.29.28-.92.95-1.3l.65.8c1.27-.92,2.39-2.42,3.8-3.44.07.31,0,.74.48.8,1.63-1.53,4.1-2.22,6.22-2.75l.26-1.16c.17-.08.5.17.41.42.88-.12-.24-.5-.07-1a.44.44,0,0,1,.66.51c.88-1.37,2.77-3.45,4.56-3.4l-.13.38c1.21-.28.26-2.23,1.62-2.07l-.1.24c2.42-1,4.49-3.08,6.85-2.91-.31-1.29,2.49-.79,1.75-2.4,1.71,0,1.51.51,3.6,0,.52-.21.16-1.37.66-1.87l.48.79.32-1.3,1,.71.44-.53a.73.73,0,0,1-.78-.34,2.21,2.21,0,0,1,2.7-.27l1.66-1.86c.14.35-.14.66-.29,1,.62-1.45.69.73,1.26-.6-.24-.1-.2-.52-.27-.69a3.47,3.47,0,0,0,2.65-1.15l.16.65c1.6-.74,3.06-2.12,4.77-3.1-.76.1-1.17-.94-.73-1.32l.69.73c0-.71-.71,0-.41-1,.7-.27,1,.71.78,1.2l.61-.74c.19.23.09.46.22.81,0-.71,1.83.08,1.76-1.1l.19.23c1.71-1,2.32-1.72,3.69-2.57-.39-.75.24-.9.32-1.73a14,14,0,0,0,3.82-1.21c.66-.86-.1-.77,0-1.42.45.63,1.64-.14,1.28.7a15.73,15.73,0,0,0,3.37-2.84c-.36-.16-.66-.14-.67-.44a.71.71,0,0,1,1.07.18l0,.12c1.52-2.21,6-.86,6.84-3.21l-.05.12,1.32-1.72c.86-.35-.19.78.64.85,1.23-2.19,3-1.55,4.16-3.18,2.33,1.27,4.15-2.58,6.49-2.26l-.36-.41c.15-.69.66,0,1-.1-.25-.33-.69-.15-.58-.56,3.2-2.59,7.67-3.53,11.52-5.19,1.39-.64-.63-2.82,1.67-2.68l0,1.13c2.07-2.57,5.47-3.11,7.58-5.49,0,.29.1.55-.15.69.91.31,2.06-1.15,1.77-1.66.44-.18.36.41.76.52.77,0,.93-1.6,1.58-1.15.11.07,0,.29-.11.4.19-.51,1.72-.89,1-1.41,1.18-.22,1.69-1.4,2.72-1.43,0-1.1,1.9-.58,1.41-1.81.61,1.22,2.27,0,2.57-1,0,.47.75.06.79.69.7-.42,1.22-1,.75-1.55,2.11.65,2-2.64,3.74-1.27a47.25,47.25,0,0,1,5.16-4.76c.61,1.21-2,1.32-1.23,2.51,1.51-1.52,2-3.12,3.91-3.86.55-.11,0,.66,0,.95,1.51-1.52,3.52-1.89,4.75-3.45.06.11,0,.33-.16.51.29-.22.83-.25.49-.76l-.22.32c-.95-.48.31-2.34.14-2.78.35,1.83,1.8-.53,2.06,1.89a.82.82,0,0,0,0-1c.37-.07.58.08.51.66,1-.94.23-1.28,1.26-1.85.15.26,0,.48.07.84.23-.8.45-1.6,1.44-1.88,0,.19.25.33,0,.47,1.43-.93,1.75-2.8,3.65-3.25.17,1.4.76,0,1.41,1l.71-.79-.62-.27c.77-.42,1-1.52,1.88-1.58l-.34.73,1.33-1-1,.1c.48-.95-.79-1.18.38-1.5-.15.22.77-.43,1.5-.09h0c.2-.53.4-1.08,1.11-1.16.33.23.5,1.14.72,1.29-.09-1,1.66-1.26,1.63-2.4a1.38,1.38,0,0,0,.36.88l-.07-.84c.48,0,.59.08.76.52,1.13-.49-1-1,.52-1.23-.07.11,0,.18-.11.4,1.43-.46,2.21-1.83,3.57-2.18.91.78-.88.83,0,1.42,1.58-1.15,2.81-3.18,4.57-3.89l-.37.07c-.57-1.51,1.61,0,2.05-1.14-.14.22.18.92.14.73,1.24-.42,2.08-1.65,3.52-3.06v.47a14.57,14.57,0,0,0,2.64-1.07c0-.47.45-.65-.1-1,3.35.75,3.55-3.49,6.46-2.93-.23.14-.37.63-.19.52l1.47-1.28c-.48-.52-.43-.24-1-.51a1.58,1.58,0,0,1,.72-1.26c-.51.83.56,1,1.08,1.11-.16-.15-.17-.42-.3-.59,1.48.57-.55-1.29,1-1.25l.12.35c.35-.42.51-1.07,1-1.25.6.58-.28.6,0,1.18.65-.43.56-2.08,1.56-1.73-.17.36-.58.6-.75,1,1.13.44,1.09.18,1.65,0h-.06l1.35-.28-.42-.05c-.21-2.29,1.51-1.31,2-3.15-.45,1.76.19.75.56,1.59.41.05,1,0,1,.34.17-.94,1.18,0,1.39-1.38.18.23.58-.3.83.4.58-.6-.42-.35-.54-.7.57-1.48,3.12-.4,4-2.47,1-1.25.79-2.25,1.78-3.38.65.17.19,1.12.19,1.12a2,2,0,0,0,1.81-1c0,.29.24.41.6.58.47-.36-.19-1.12.69-1.13a4.31,4.31,0,0,1,.08,1.31c.46-.58.78-1.39,1.26-2,.42.35,0,.88,0,1.3.58-.6,1.57-1.44,1.38-2.26h-.59c.23-.18.48.53.36.76-.28.89-1,.25-1.18,0l.35-.42c-1.31-1.23-1.63,1.26-2.56,1.68l-.26-1.29-.39,1.42c-.36-.17-.84-.7-.49-1.11-.94-.17-.34.71-1.23.43-.11-.06-.12-.13-.09-.2L307,93c0-.3-.54-.7-.07-.77-1.47,0-1.33,1.85-2.22,1.27l.05-.12c-1.33,1.26.31.88-.31,2.48l-1.91-1.51.31.88c-.18.06-.52.19-.65-.17-.28.89.3.29.25,1-1.18-.28-1.92,1.56-2.82.39.07.76,1,0,.43.93-1-1.22-.81.78-1.87.56-.19-.83.69-.84-.37-1.06.26,1.43-1.51.53-2,1.1.52,1-1.06,1.14-1.87,2-.12-.35-2.16.56-3.28.75l-.06-.17c.37,1.06-.68,1.43-1.26,2a1.27,1.27,0,0,1-.08-1.36l-.65.38a1.2,1.2,0,0,1-.45,1l-.25-.81c-.84.54-1.26,1.85-2.65,2,.32.7,2,1.34,1,2.47-.25-.33-.65-.92-.43-1.25-.07.11-.19.51-.48.47l.12-.88c-.66,0,0,.66-.41.84-.29-.52-.51-.19-.69-.63.07-.11.48,0,.52-.28a2.05,2.05,0,0,1-1.65-.1c.21.27.4.69.1,1-.84.54-.65-.45-1.31-.42,0,.48-.77.43-.34,1.2-.26.14-.51-.19-.73-.34-.25.6-2,1.31-1.06,1.83h.15s0,0-.05.08h0c-1,1.61-3.3,1.33-4.57,2.5l-.15-.26c-.7.8-1.84,1.29-2.14,2.2a.79.79,0,0,1-.94-.49c-.55.58-.46.91-1.67,1,.41-.83-.46-.26.5-.72-1,.28-1.43,0-1.95,1.22-.06-.84-1.13-.45-1.43,0l.88.12a4.14,4.14,0,0,1-1.29.72l-.28-1c-2.38,0-2.16,3.63-4.52,2.65-.12.87,1.21-.13,1.2.82-.88.35-2.45-.4-2.7-.25-1.39.16-.31,1.86-1.67,2.21a1.14,1.14,0,0,1,.24,1.76c-.88.36-1.75-.72-1.38-1.26.18-.14.33-.1.38,0,.2-.26.47-.6,0-.74l.07.37c-.59-.08-1.69.6-1.72-.06-.45.65,0,.66.58.55-1.3.16-1.64.93-2.89,1.25.27.07.64.34.46.44-1.8.53-.36,1-1.35,1.74-.88-.12-.43-1.25-1.28-.23-.84.06-.61-.74-.5-1.14-.64,1.16-2.06.67-2.68.88l.37-.55a2,2,0,0,1-.74.61l.65.45c-.36.07-.62.21-.77,0-.08.58.83.89.53,1.8-.58-.08-1,1-1.65.31,1.43-.46-.61-.74.38-1.49a1.14,1.14,0,0,1-.77.43c-.1-.07-.05-.19,0-.29-1.64,0,0,1.25-1.3,2-.11-.55-.8-.71-.95-.49.51-.28.69.63.43,1.25-1,.11-.72.77-1.17,1l.58-.11c.1.56-.34.73-.82,1.2-.26-.33.37-.54.08-.58-.16,1.17-1.9,0-2.45,1-.58-.08-.54-.84-1-.85-.63,1.16-1.42,0-2.17,1.07.65.45.62.27.24,1.29l1.44-1.41-.56,1.53c.51-.29.85-1,1.22-1.08-.22.8-.26.62.28,1-1.23-.53-1.07,1.34-2.24,1.18l-.86-1.55c-1.61,0-1.7,2-3.5,2.55l.66,0c.14.73-.92.65-1.29,1.19-.25-.54-.67-.54-1.08-.74.25.37-1.17.63-.72,1.74l-1.09-.27c-1.43.46-.61,2.3-1.93,2.83,0-.77-.72-.81-.13-1.68-.41.23-.83.35-.63.71-.42-.18-.73,1.34-1.39,1.07,0,.32.21.89-.27,1.12a.45.45,0,0,1-.14-.25c.14.25-.52.76.21,1.1-2.18-.87-3.44,2.14-5.33,1.4a24.48,24.48,0,0,1-2.55,2c0-.18-.15-.26,0-.29-1.39.17.17,1.87-1.41,2.07-1.13-.45.41-.84-.17-.92-1.15-1.59-1.4,1.11-2.82.62l.15-.22c-1-.2-1.22,1.56-2.36,2.05a.48.48,0,0,0-.14-.26c-.23,1.28-1.45,2.36-2.34,3.19-.06-.84.26-.62-.32-1.18-.4.36.76,1-.05,1.72-.51-.19-1.35-.12-1.85-.79l.84-.54c-1-.67-1.1.68-1.65.78l-.18-.44c-1.25.9-.68,1.93-2.15,2.68l.32.22c-.2,1.46-1-.19-1.32,1l-.83-.89a15.88,15.88,0,0,1-2,2.76c.08-1.06.94-2.07,1.34-2.91-.51.29-1.69,1.08-1.66,1.74.15-.22.26-.62.56-.58a3.35,3.35,0,0,1-1.78,2.61c-1-2.09-2.94,1-4.56-.09-1.37,1.77-3.75,1.74-5.77,3.07,1.64,1.12-.59.4.46,1.91-.43.38-.63.46-.73.39l-2-.1c-.62-.26.26-.62,0-.95-1.14.49-.84-.41-1.79-.43.47.48.1,1-.64,1.16l1.28.24c-1,1.71-2.06-.59-3.08,1.12l.19-.77c-.6.74-2.85,1.63-2.87,3.35-.24-.1-.67-.43-.4-.75-2,.87-3.32,3.73-5.21,3.77l-.08-.47c-.28.31-.18,1.08-.83.93-.07-.17-.09-.47-.26-.4-.1.24-.52,1.21-1.11,1.24l.14-.66c-2.09.53-2.15,2.66-3.5,3.8-.66-1.15-2.29-.7-3.1-.48l-.07-.18c-2.18,1.07-3,3-4.69,4.57-1.92-.55-4.38,1.84-6.72,2.26.42,0,.47.92.19,1.23-.59,0-.8,1.52-1.33.43l.17-.07c-.94-.83-1.71,0-2.46.37l.67,1.44c-3.06-.9-4.57,3.62-6.64,2.43-.26.61-.83.93-1.09,1.54l-.4-.75a12.62,12.62,0,0,0-3.55,1.91l0-.71c-.92.47.1,2.77-.69,3.29l-.88-1c-1.54.91-3.67.85-4.62,2.73-.07-.18-.21-.52,0-.71-.75.39-3.25.89-2.12,2.24-.58-1-1.65.83-2.24,1.74l-.29-.8c-.17,1.33,0,1.6-.89,2.42-.29,0-.54-.46-.12-.45-1,.07-.21,1-1.38,1.2l.08-.67c-.83.41-.63.62-.76,1.41a1.5,1.5,0,0,1-2.12.11c.12.46,0,1.25-.59,1.33a.53.53,0,0,1-.08-.59c-1.62.28-1.51,2-2.84,1.81a.72.72,0,0,0-.41-.34,10,10,0,0,1,1.91-1c-.39-.67-1.31-.29-1.16-1.6-.4.9-.95,2.68-2,2.85a1,1,0,0,1-.24-.17l0-.12a.66.66,0,0,0-.47.41,2.17,2.17,0,0,0-.81.2c-.42-.5-1.16.27-1.6.49.46.71-.17.92.7,1.22-.1,0,0-.13.3-.33.05-.06.12-.11.14-.18s0,.05,0,.08c.27-.18.63-.41,1-.66-.12.57-.3,1.08-1,1,.05.6.09,1.22.08,1.52-1.18-.68-2.62-.58-3.14-1.11-1.07,1.17-2.93,2.05-3,3.9-.27.39-.66-.15-.92-.28.14-.26.4-.39.41-.65-.54.78-2.13,1.41-1.75,2.47-1.19.11,0-1.19-1.18-.29v-.39c-3.42-.07-2.71,4.83-6.66,4.48.26,0,.39,0,.53.15-3.71,1-6.14,4.63-10.09,5.08-1.06.24-.8.91-1.08,1.69l-.65-.67-.42,1.45c-.95,1.43-3.42-.59-4.38,1.63l.52.4c-.66.25-1.74,1.42-2,.75,0,.13.12.66-.28.53l-.26-.4-1.08,1.56c-1.32.37-.76-1.73-2.49-.84-.53.52-1.09,2.22-.7,2.36a.86.86,0,0,1,1,.28l-.45.54c.59,1.27.87,2.76,2.76,2.8l.55-1.3.65.4-.8.51c.79.28.8-.38.94-.9a1.15,1.15,0,0,0,.78.41l.29-1.71c.39.41.11,1.19.91,1.08.14-.8-1-.81-.5-1.59.78.28.91.81,1.18,0a.62.62,0,0,1,.12.8c.27-.66,1.2-.9,1.08-1.69.88.4,1.55-1.13,2.16,0a2.89,2.89,0,0,1,.76-1.7c0,1.84,1.73-.89,2.36.71-.1-1.58,1.88-1.81,2.56-3.12,0,.13,0,.4-.14.39.66-.25,1.05,0,1.58,0-.51-1.06.3-1.84.44-2.76,1.31.55.24,1.46,1,2.26-.51-.8.81-1.57.16-2.11.92.28.66,0,1.44.69-.64-1.33.4-.52.42-1.57,1.18.15.9,1.07,1.58.16C101.27,217.25,100.72,218.17,100.72,218.17Zm20.17-14.58h0l-.42.3Zm1.8-1.05a6.53,6.53,0,0,0-.8.42c-.21-.22-.29-.51-.1-.61C121.79,202.58,122.3,202.48,122.69,202.53ZM116,199.67c.23-.27.4-.18.53-.05a4,4,0,0,0-.45.38s0,.07,0,.11A1.46,1.46,0,0,1,116,199.67Z"/><path class="cls-1" d="M116,200.93s0,.08-.09.12l.27.07c0-.1,0-.19,0-.29Z"/><path class="cls-1" d="M280,107.69h0a.32.32,0,0,1,.14.06A.64.64,0,0,1,280,107.69Z"/><polygon class="cls-1" points="148.39 189.56 148.28 189.38 148.21 189.63 148.39 189.56"/><path class="cls-1" d="M291.37,104.47a.41.41,0,0,0,.24.11A.53.53,0,0,0,291.37,104.47Z"/><path class="cls-1" d="M295.75,102.15l.76-.09A3,3,0,0,0,295.75,102.15Z"/><path class="cls-1" d="M299.25,100.61a1.76,1.76,0,0,0-.12-.35h0Z"/><path class="cls-1" d="M247.33,131.73a.42.42,0,0,0-.11.11C247,132.15,247.18,132,247.33,131.73Z"/><path class="cls-1" d="M261.95,121a3.15,3.15,0,0,1-.3.63C262,121.55,262.18,121.44,261.95,121Z"/><path class="cls-1" d="M230.42,142.67h0l-.11.06Z"/><path class="cls-1" d="M260.91,122.06a.87.87,0,0,0,.73-.41A1.3,1.3,0,0,0,260.91,122.06Z"/><path class="cls-1" d="M313.73,92.7l.18-.06a.31.31,0,0,1,0-.13Z"/><path class="cls-1" d="M313.86,92.51l.13-.19C313.91,92.36,313.84,92.41,313.86,92.51Z"/><path class="cls-1" d="M314.25,91.92l-.26.4C314.12,92.25,314.29,92.18,314.25,91.92Z"/><path class="cls-1" d="M309.17,94.88l.1.29A.79.79,0,0,0,309.17,94.88Z"/><path class="cls-1" d="M307.89,95.72c.35-.12,1.12.11,1.47-.31l-.08-.23C309.3,95.68,307.93,95.1,307.89,95.72Z"/><path class="cls-1" d="M300.47,95.64l1.23-.43c-.36-.17-.83-.4-.36-.76C299.45,94.42,302,94.91,300.47,95.64Z"/><path class="cls-1" d="M296.78,97.22c.52-.48-.24-.41-.3-.58C296.25,97.11,296.2,97.23,296.78,97.22Z"/><path class="cls-1" d="M271.88,111.6l-.32-.7C271.15,111.26,271.7,111.16,271.88,111.6Z"/><polygon class="cls-1" points="269.11 117.78 269.79 117.93 269.65 117.2 269.11 117.78"/><polygon class="cls-1" points="263.56 114.67 263.71 114.46 263.08 115.14 263.56 114.67"/><path class="cls-1" d="M221.88,139.05l.61.74C222.71,139.46,222.25,138.5,221.88,139.05Z"/><path class="cls-1" d="M204.3,150.31c-.43-.3-1.09-.27-1.17.32C203.57,150.45,204.16,150.53,204.3,150.31Z"/><polygon class="cls-1" points="149.39 180.24 149.59 179.75 149.04 180.38 149.39 180.24"/><path class="cls-1" d="M223,200.09V177h-8.93v-2.52H235V177H226v23.11Z"/><path class="cls-2" d="M223,200.09V177h-8.93v-2.52H235V177H226v23.11Z"/><path class="cls-1" d="M223,199.42c0,.09,0,.28.11.24l.1-.33Z"/><path class="cls-1" d="M223.95,200a.75.75,0,0,0,.24-.75c-.16.32-.2.19-.36.56-.14,0-.24-.11-.21-.23,0,.08-.21-.07-.28.14a.37.37,0,0,0,.63.05C224,199.89,224,200,223.95,200Z"/><path class="cls-1" d="M226.49,189l0,.08A.16.16,0,0,0,226.49,189Z"/><path class="cls-1" d="M226.68,180.82c0,.06,0,.09.07.09S226.7,180.81,226.68,180.82Z"/><path class="cls-1" d="M227,179.43l0,.08S227.06,179.44,227,179.43Z"/><path class="cls-1" d="M226.49,189l.1-.22C226.49,188.75,226.52,188.88,226.49,189Z"/><path class="cls-1" d="M225.05,199.24a.14.14,0,0,0,0,.09l0,0Z"/><path class="cls-1" d="M226.76,192.59v.07l.13.06Z"/><path class="cls-1" d="M226.81,195.35c0-.06-.27-.08-.39-.11.12,0,.17.08.19.14Z"/><path class="cls-1" d="M226.32,200l0,.12Z"/><path class="cls-1" d="M226.82,190.61l.1,0Z"/><path class="cls-1" d="M224.36,196.89h-.05S224.36,196.91,224.36,196.89Z"/><polygon class="cls-1" points="222.97 200.09 222.96 200.04 222.8 200.03 222.97 200.09"/><path class="cls-1" d="M227.42,178.35h0S227.43,178.37,227.42,178.35Z"/><path class="cls-1" d="M222.88,173.29c.27.25-.43.32,0,.6C222.81,173.79,223.21,173.46,222.88,173.29Z"/><path class="cls-1" d="M225.12,199.28h.05S225.12,199.26,225.12,199.28Z"/><path class="cls-1" d="M222.84,173.9h0l0,0Z"/><path class="cls-1" d="M232,178.18a.37.37,0,0,0-.06-.12A.24.24,0,0,0,232,178.18Z"/><path class="cls-1" d="M227.64,177.78l.1,0A.3.3,0,0,0,227.64,177.78Z"/><path class="cls-1" d="M234.76,177.78c.1,0,.16.06.25,0l-.06,0S234.89,177.83,234.76,177.78Z"/><path class="cls-1" d="M235.76,174.94l-.06.24v.22A2.9,2.9,0,0,0,235.76,174.94Z"/><path class="cls-1" d="M224.23,189.69a.93.93,0,0,1-.25.11C224.17,189.76,224.25,190.11,224.23,189.69Z"/><path class="cls-1" d="M225.19,199.4c-.05-.07-.07-.11-.07-.12l0,0Z"/><path class="cls-1" d="M233.47,175.56l.08,0Z"/><path class="cls-1" d="M218.77,175.83l.09,0A.08.08,0,0,0,218.77,175.83Z"/><path class="cls-1" d="M233.55,176.06a.56.56,0,0,0,.19-.21l-.07,0Z"/><path class="cls-1" d="M224,189.8h0Z"/><path class="cls-1" d="M224.64,192.28c0-.36-.36-.17-.57-.24-.1-.43.27-.2.46-.34-.1-.27-.44-.47-.42-.67.06,0,.08-.05.16,0-.29-.28,0-.84-.38-1.17l.09,0a1.47,1.47,0,0,1-.51.05c0-.16-.23-.3,0-.36,0,.1.09.11.17.15l-.1-.17c.35-.15.12.23.38.23-.11-.33-.4-.71-.3-1,.34-.05.11.59.42.25l-.13.39c.54-.3,0,.24.54,0,.1-.51-.17-.57-.07-1.08-.19-.12-.28,0-.47-.08-.34-.73.85-.57.4-1.11-.23-.14-.66-.19-.43-.57l.38.13c0-.5-.55-.28-.29-.8.15.09.13.39.17.31.3-.34-.22-.24-.22-.5l.34-.05c-.05-.53-.3-1.11-.36-1.69.1,0,.21.13.31,0a4.8,4.8,0,0,1,.24-2.29l-.29-.27a.12.12,0,0,1,.19,0c.11-.28-.19,0-.3-.15a.15.15,0,0,1,.26-.11,2.29,2.29,0,0,1-.22-1.91l.09.1c.06-.2-.09-.31-.22-.42s-.24-.18-.11-.49l.05.1c.07-.77,0-1.57,0-2.32a3.59,3.59,0,0,1-1.43-.26c-.19.21-.5.16-.84.14h-.24l-.13,0c-.08,0-.14.1-.15.25-.5-.29-.35-.4-1.06-.59-.19,0-.28.37-.51.43v-.31l-.31.32-.17-.37-.22.08a.24.24,0,0,1,.17.23.75.75,0,0,1-.83-.37l-.8.26c0-.12.15-.17.26-.25-.43.31-.08-.32-.47,0,.05.07,0,.18,0,.25a1.19,1.19,0,0,0-1-.11l.06-.21a3.39,3.39,0,0,0-.46,0c-.11,0-.06,0-.11,0a.42.42,0,0,1-.2.07c0,.1-.3.47-.45.5l.26-.33c-.24.2,0,.12-.37.37v0a1.67,1.67,0,0,1,.43-.43l0,0h0l-.1,0,.27-.22c-.1.08,0,0,0-.07l.06-.05h0s0,0,0,.11a2.84,2.84,0,0,1-.09.53s.06,0,.1,0c0-.17,0-.31,0-.44l0-.19v0s0-.06,0,.08V176a.37.37,0,0,1-.07-.15,1.68,1.68,0,0,1-.21-.22c0-.07,0-.1-.11-.24.27.09.48.31.58.29.34-.14.1-.24.25-.41,0,.26.51.23.26.42a5.39,5.39,0,0,0,1.47-.26c-.08-.1-.17-.15-.12-.24a.24.24,0,0,1,.28.23l0,0c.82-.38,1.89.75,2.55.21l0,0,.68-.28c.31,0-.19.19,0,.35.73-.43,1.15.06,1.76-.22.47.76,1.65-.05,2.28.43l0-.18c.16-.17.2.1.32.14,0-.14-.18-.16-.08-.26a16.52,16.52,0,0,1,4.25.42c.52,0,.29-.92.94-.5l-.18.33a4.09,4.09,0,0,1,1.58-.18c.26,0,.53,0,.79,0l.39,0c.12,0,.3-.05.3-.09s0,.18-.08.17c.09.12.05.12.11.07a2.08,2.08,0,0,0,.17-.26s-.08.18-.11.28.33-.31.15-.07l-.1.1.07,0s0,.08.2-.1c0,.05,0,.08,0,.1v0h0s0-.1,0-.14v-.36a.73.73,0,0,1,0,.48.24.24,0,0,1,.11.19v0h0v-.46h0s0,.06.19.24c-.25-.18-.33-.2-.33-.15s0,.08,0,.17c-.08-.14-.15-.14-.24-.33,0,0,0,.09,0,.32-.18-.27-.05-.16-.39-.07s-.43.16-.57-.19a16.16,16.16,0,0,1-2.32.51c0-.45.82,0,.78-.52-.7.19-1.1.57-1.8.46-.18-.06.1-.2.16-.27a3.71,3.71,0,0,1-1,.08,4.44,4.44,0,0,0-.49,0l-.24,0-.37.07s.1-.09.2-.12c-.2,0-.49-.07-.42.14l.18-.06c.18.15,0,.3-.16.44s-.32.26-.29.34c0-.59-.89-.15-.9-.89-.11,0-.2.14-.07.27-.21,0-.35-.12-.27-.28-.35.06-.36.15-.41.22a1.3,1.3,0,0,1,.11.57c-.1-.08-.14-.24-.25-.41a2.52,2.52,0,0,1,.3,1.35c-.06-.06-.14,0-.14-.18a4.63,4.63,0,0,0,.25,1.2,1.19,1.19,0,0,1,.08.83c-.43-.19-.14.22-.52.25l.11.34.18-.14c0,.3.27.56.14.82l-.15-.22.07.56.14-.32c.19.3.47,0,.37.36,0-.08,0,.3-.22.45h0c.12.15.24.3.15.52-.12.06-.41,0-.49,0,.31.15.09.7.42.88a.45.45,0,0,0-.31,0l.25.12c-.08.14-.12.16-.28.14,0,.42.47-.13.27.36,0,0-.06,0-.1-.1-.11.5.16,1,0,1.41-.38.13-.09-.4-.41-.24a9.15,9.15,0,0,1,.36,2l0-.12c.53.09-.26.47,0,.79,0-.08-.29-.1-.24-.08a4,4,0,0,0,.3,1.55l-.14-.08a5,5,0,0,0-.13,1c.14.08.11.24.31.14-.78.85.42,1.63-.23,2.39,0-.09-.12-.22-.12-.14l.13.65c.23-.05.14-.08.32-.22a.53.53,0,0,1,.24.42c-.15-.29-.37,0-.5.13.07,0,.15,0,.22,0-.41.34.46.06.19.52l-.12,0c.06.17.22.33.19.52-.27.08-.12-.18-.34-.2,0,.26.51.51.24.75-.07-.11-.08-.27-.15-.38-.31.26-.23.29-.28.48v0l-.14.44.08-.11c.7.33.13.66.58,1.1-.43-.43-.25-.07-.55-.1-.08.11-.18.28-.26.23.24.21-.19.35.16.64-.1,0,0,.22-.25.18.08.27.17-.06.29,0,.33.41-.4,1,.05,1.55a3.72,3.72,0,0,1,.68,1.15c-.16,0-.36-.37-.36-.36s-.12.2-.05.43l0,0c0-.08-.15-.16-.3-.27s.19.36-.12.21l-.15-.39c0,.09-.1.27-.25.36-.1-.17,0-.26,0-.37a.82.82,0,0,0-.42.42l.15.1c-.08,0-.05-.23,0-.28.11-.21.24.09.29.19l-.12.06c.13.29.33.26.46.17s.2-.25.34-.23a3.25,3.25,0,0,1,.21.42.81.81,0,0,0,0-.35l.06,0a.81.81,0,0,1,.32.32,0,0,0,0,1,0,0l.12,0c.09-.12-.17-.34,0-.38,0,0,.06,0,.07.07l-.12-.36c.09.11.29.14.23.28a.84.84,0,0,0,0-.67c-.07-.2-.13-.33,0-.4l0,.05c-.14-.75-.31-.11-.66-.59l.75-.3-.31-.06c0-.06,0-.19.16-.16-.21-.23-.13,0-.33-.09.28-.3-.13-.82.36-.89-.23-.11-.18.29-.34,0,.52-.09-.09-.37.15-.64.27.08.13.34.37.07-.46-.16.1-.53,0-.76-.36,0-.15-.5-.27-.89.12,0,.2-.73.33-1.09h.06c-.37-.07-.3-.44-.37-.71a.42.42,0,0,1,.41.21v-.25a.4.4,0,0,1-.22-.3l.27.06c0-.34-.32-.68-.14-1.12-.26,0-.71.35-.88-.11.14,0,.38,0,.43.09,0,0-.11-.14-.06-.22l.23.18c.1-.2-.19-.1-.17-.26.2,0,.14-.12.3-.09s-.08.14,0,.2a.69.69,0,0,1,.3-.47c-.11,0-.27,0-.29-.13,0-.34.24-.12.34-.31-.14-.08,0-.3-.29-.3,0-.1.14-.12.22-.16-.13-.18,0-.82-.35-.62l0,0v0h0c-.29-.57.17-1.19,0-1.76h.1c-.11-.34-.07-.76-.28-1a.26.26,0,0,1,.3-.19c-.07-.26-.19-.29,0-.66.17.26.15-.09.13.27.09-.34.24-.41,0-.78.25.12.32-.25.24-.41l-.18.24a1.42,1.42,0,0,1,0-.5l.33.09c.4-.69-.69-1.25,0-1.77-.23-.18-.16.38-.44.21,0-.32.52-.65.52-.75.18-.44-.49-.41-.36-.86a.38.38,0,0,1-.55-.23c0-.32.5-.39.59-.19s0,.11-.07.11.09.24.22.11l-.12,0c.12-.16.11-.6.3-.49-.11-.24-.19-.1-.26.08.17-.41,0-.64.12-1.06-.07.07-.2.13-.2.06.15-.62-.23-.27-.28-.69.18-.23.43.06.28-.31.12-.12.31,0,.41,0-.23-.15.15-.17.19-.13l.1.07c-.06,0-.06-.05-.05-.06l-.24-.12s0,0,.14,0a3.41,3.41,0,0,1-.61-.51c.06,0,0-.09,0-.15s.12,0,.26.17c-.11,0-.11,0-.05,0l0,0a2.69,2.69,0,0,1,.22.22.38.38,0,0,1,.07.1s0,0,0-.06l.06,0,.07.08c.3.28-.27-.36-.06-.35.08.18.19.34.18.3a.61.61,0,0,1-.12-.43c.17.14.13-.1.23-.09l-.1-.07c0-.18.11-.15.35-.21,0,.14-.2.1-.12.16.24-.31.55.32.89.11.16.12,0,.33.15.42.38-.23.41.24.81.05-.12-.24-.14-.18.15-.41l-.66.17.42-.35c-.2,0-.42.15-.54.11.2-.19.18-.14.09-.33.27.36.54-.21.85,0V178c.47.26.84-.3,1.46-.15l-.2-.1c.08-.23.38,0,.58-.13,0,.2.11.27.19.39,0-.15.45,0,.51-.38l.27.26c.49.11.54-.56,1.17-.5-.15.21.22.35-.26.51.25,0,.5,0,.46-.1.21.12.54-.27.85-.08,0-.09-.08-.29.17-.28a.22.22,0,0,1,.08.1c-.07-.1.25-.13-.15-.35l.31.14a.55.55,0,0,0,.14-.41c0-.09,0-.2,0-.3v-.46a1.43,1.43,0,0,1,.22-1v-.35l0-.15,0-.29-.05-.55h-.31c.08-.06.09-.1.15-.08-.5-.18-.79.57-1.24.36-.19-.32.42-.17.27-.29.12-.32-.14-.3-.44-.25s-.67.15-.8,0l.08,0c-.25-.22-.62.25-1,.2a.16.16,0,0,0,0-.1,2.29,2.29,0,0,1-1.22.53c.12-.25.18-.13.11-.39-.18,0,.05.41-.31.49-.12-.14-.37-.26-.41-.54h.34c-.17-.36-.44,0-.62,0l0-.16c-.52.05-.52.44-1.08.42l.06.12c-.3.39-.26-.22-.56.07l-.09-.39a5.41,5.41,0,0,1-1.06.46,3,3,0,0,1,.89-.62c-.2,0-.68,0-.78.22.08,0,.18-.13.26-.07a1.14,1.14,0,0,1-1,.46c.07-.77-1-.19-1.32-.79-.7.28-1.39-.12-2.21-.08.29.6-.24,0-.19.63-.19,0-.26,0-.28,0l-.58-.37c-.14-.18.18-.13.16-.27-.42,0-.17-.26-.45-.42.06.22-.15.31-.38.23l.33.28c-.58.33-.5-.51-1.09-.19L221,173c-.3.11-1.11,0-1.41.49-.05-.07-.12-.24,0-.28-.72-.07-1.6.52-2.16.22l.05-.15c-.13,0-.23.28-.4.13,0-.06.05-.15,0-.16s-.36.26-.53.17l.15-.17a1.09,1.09,0,0,0-.88.14,3.16,3.16,0,0,1-.52.22,2.6,2.6,0,0,1-.57.15c-.14-.44-1.21-.58-1.8-.65l0-.06h-.26a9.25,9.25,0,0,0,.06,1l.07.49v.31l0,.48a.92.92,0,0,0,0,.13l.18.48a.51.51,0,0,1,0,.17c0,.24,0,.62,0,.59l.07.37a3.53,3.53,0,0,0-.25,1,15,15,0,0,0,1.53.08l.84,0,.4,0,.21.06c-.12-.08,0-.34.15-.39s.49-.31.46.1h-.06c.13.4.5.29.78.3l0-.53c.74.77,1.95-.28,2.36.41.18-.13.4-.13.58-.26v.28c.25,0,.44.06.64.07h.51s0,0,.06,0a1.35,1.35,0,0,0,0,.2s.24-.82.47-.83q-.08.21-.19.42a.12.12,0,0,1,.13.09c-.07.18-.12.22.11.26a.7.7,0,0,1-.2,0s-.08.08-.07.15c0,.23.08.41.37.35-.38,0,0,.62.13,1l-.28-.05c.36.28.45.28.55.67,0,.09-.22.08-.15,0-.15.3.26.24.12.61l-.18-.14c0,.31.07.29.28.46a.51.51,0,0,1-.32.64c.15,0,.36.21.29.4a.18.18,0,0,1-.18-.08c-.19.52.32.78.05,1.14a.24.24,0,0,0-.17.06,3.44,3.44,0,0,1,0-.72c-.26,0-.3.34-.66.07.19.27.61.73.49,1.06l-.09,0,0,0a.23.23,0,0,0,0,.21.74.74,0,0,0-.08.27c-.21,0-.11.39-.13.55.28,0,.24.21.47,0,0,0,0,0,0-.14a.18.18,0,0,0,0-.07h0l0-.42c.14.13.26.27.11.46l.45.23c-.39.23-.6.67-.85.73.16.51.1,1.2.63,1.53.07.15-.15.17-.23.22s0-.18-.12-.23c.14.29.05.86.42.93-.17.37-.34-.21-.28.3l-.11-.07c-.59,1,.94,1.61.18,2.71,0-.08.07-.11.13-.13-.33,1.25.31,2.58-.22,3.81-.11.35.13.39.31.6l-.3.08.35.37c.26.52-.74.9-.26,1.56l.2-.08c0,.24.12.75-.11.71,0,0,.21.08.11.17h-.16l.27.58c-.11.45-.63-.07-.66.59.06.24.46.69.57.6a.29.29,0,0,1,.26-.26l.08.22c.47,0,.94.21,1.27-.34l-.28-.38.23-.12v.32c.21-.18,0-.3-.1-.43a.38.38,0,0,0,.25-.16l-.44-.37c.18,0,.36.17.46-.08-.21-.18-.41.17-.54-.12.21-.18.38-.13.2-.34a.21.21,0,0,1,.25.1c-.14-.19-.06-.5-.31-.6.26-.19-.07-.64.37-.63a1,1,0,0,1-.36-.51c.53.32,0-.66.6-.57-.47-.24-.21-.86-.47-1.28,0,0,.11.07.09.11,0-.24.18-.3.27-.46-.39,0-.48-.4-.72-.6.38-.29.46.18.82.08-.32,0-.32-.5-.58-.4.23-.22.11-.19.44-.3-.49,0-.08-.21-.38-.39.24-.32.46-.08.31-.43C224.47,192,224.64,192.28,224.64,192.28Zm-.85-8.37h0l0,.17Zm0-.7a2.23,2.23,0,0,0,0,.31c-.1,0-.2,0-.19-.07S223.71,183.31,223.79,183.2Zm-1.95,1.49c0-.11,0-.15.07-.16a1.37,1.37,0,0,0,0,.19h0Z"/><path class="cls-1" d="M222.21,184.89s0,0,0,0l.06-.07-.09,0Z"/><path class="cls-1" d="M226.45,189.09h0l0,0Z"/><polygon class="cls-1" points="219.56 175.69 219.56 175.76 219.62 175.7 219.56 175.69"/><path class="cls-1" d="M225.48,193a.14.14,0,0,0-.07.05A.18.18,0,0,0,225.48,193Z"/><path class="cls-1" d="M225.42,194.64l-.1.24A1,1,0,0,0,225.42,194.64Z"/><path class="cls-1" d="M225.28,195.92l.12,0h0Z"/><path class="cls-1" d="M227.48,175.9h.08C227.75,175.83,227.62,175.85,227.48,175.9Z"/><path class="cls-1" d="M225.61,181.55a1.07,1.07,0,0,1-.13-.2C225.45,181.46,225.45,181.55,225.61,181.55Z"/><polygon class="cls-1" points="233.47 175.56 233.47 175.56 233.47 175.56 233.47 175.56"/><path class="cls-1" d="M225.48,181.07a.3.3,0,0,0,0,.28A.45.45,0,0,0,225.48,181.07Z"/><path class="cls-1" d="M224.51,199.21h0a.22.22,0,0,1,0,0Z"/><path class="cls-1" d="M224.48,199.25l0,0S224.48,199.28,224.48,199.25Z"/><path class="cls-1" d="M224.34,199.35a.26.26,0,0,0,.11-.07A.1.1,0,0,0,224.34,199.35Z"/><path class="cls-1" d="M225.28,199.18l-.1-.09Z"/><path class="cls-1" d="M225.25,198.89c0,.06-.22,0-.15.13l.08.07C225,199,225.43,199.06,225.25,198.89Z"/><path class="cls-1" d="M226.51,197.12l-.08.43c.11-.08.25-.18.28,0C227,197,226.47,197.69,226.51,197.12Z"/><path class="cls-1" d="M226.67,195.77c.05.23.16,0,.22,0C226.79,195.63,226.77,195.6,226.67,195.77Z"/><path class="cls-1" d="M226.67,186.05l.26,0C226.89,185.9,226.83,186.07,226.67,186.05Z"/><polygon class="cls-1" points="225.35 184.19 225.19 184.37 225.43 184.45 225.35 184.19"/><polygon class="cls-1" points="227.17 183.1 227.21 183.18 227.12 182.88 227.17 183.1"/><path class="cls-1" d="M236,175.7l-.32.05C235.75,175.88,236.11,175.9,236,175.7Z"/><path class="cls-1" d="M229.16,173.73c-.08-.16-.28-.26-.4-.1C228.92,173.64,229.07,173.77,229.16,173.73Z"/><polygon class="cls-1" points="217.69 178.22 217.55 178.33 217.81 178.24 217.69 178.22"/><path class="cls-1" d="M258.11,174.46h3.06L250,200.09h-2.59l-11.2-25.63h3.13l9.4,21.89Z"/><path class="cls-2" d="M258.11,174.46h3.06L250,200.09h-2.59l-11.2-25.63h3.13l9.4,21.89Z"/><path class="cls-1" d="M258.72,174.72c-.06-.09-.25-.13-.28,0l.26.24Z"/><path class="cls-1" d="M257.72,175.49c.07.24.24.55.57.56-.22-.3-.08-.29-.34-.63a.21.21,0,0,1,.31-.15c-.06-.09.17-.2,0-.37a.5.5,0,0,0-.35.68C257.83,175.61,257.77,175.52,257.72,175.49Z"/><path class="cls-1" d="M251,189.92l.08-.08A.22.22,0,0,0,251,189.92Z"/><path class="cls-1" d="M248,193s.06,0,.08,0S248,193,248,193Z"/><path class="cls-1" d="M247.76,191.56l0,.1S247.79,191.57,247.76,191.56Z"/><path class="cls-1" d="M251,189.92l-.2.2C250.85,190.19,250.89,190,251,189.92Z"/><path class="cls-1" d="M257.59,177.82a.34.34,0,0,0,0-.17,1.2,1.2,0,0,1,0,.14Z"/><path class="cls-1" d="M252.43,185.82l0-.07-.1-.11Z"/><path class="cls-1" d="M253.7,182.73c0,.06.21.2.31.27a.28.28,0,0,1-.11-.23A.63.63,0,0,0,253.7,182.73Z"/><path class="cls-1" d="M256.25,178.06v0Z"/><path class="cls-1" d="M251.43,188h-.1A.2.2,0,0,0,251.43,188Z"/><path class="cls-1" d="M259.09,175.91l.07,0Z"/><path class="cls-1" d="M258.11,174.38l.06,0a1.47,1.47,0,0,0,0-.16Z"/><path class="cls-1" d="M246.87,188.59h0C246.93,188.66,246.91,188.62,246.87,188.59Z"/><path class="cls-1" d="M238.81,183.38c.1-.39.5.35.57-.21C239.29,183.26,238.8,182.94,238.81,183.38Z"/><path class="cls-1" d="M257.52,177.88a1,1,0,0,1-.05.13A.3.3,0,0,0,257.52,177.88Z"/><path class="cls-1" d="M239.38,183.17h0v0Z"/><path class="cls-1" d="M243.91,182.12a.35.35,0,0,0-.08.12A.22.22,0,0,0,243.91,182.12Z"/><path class="cls-1" d="M245.63,187.15l0-.14A.35.35,0,0,0,245.63,187.15Z"/><path class="cls-1" d="M242.46,179.75c0-.07,0-.11-.06-.19l0,0S242.47,179.66,242.46,179.75Z"/><path class="cls-1" d="M241.33,177.12l0,.07,0,.08Z"/><path class="cls-1" d="M256.27,182.7a.85.85,0,0,1,.28,0C256.36,182.64,256.46,182.22,256.27,182.7Z"/><path class="cls-1" d="M257.44,177.76c.06,0,.08.08.08.13l0-.09A.13.13,0,0,0,257.44,177.76Z"/><path class="cls-1" d="M240.38,180.52l-.14-.43A2.3,2.3,0,0,0,240.38,180.52Z"/><path class="cls-1" d="M248.28,198.94l0,0S248.3,198.91,248.28,198.94Z"/><path class="cls-1" d="M239.67,178.86a.65.65,0,0,0,.08-.31l-.09,0Z"/><path class="cls-1" d="M256.56,182.68h0Z"/><path class="cls-1" d="M257.15,179.67c-.18.39.25.33.41.5-.11.52-.34.11-.59.2,0,.34.17.7.06.91-.06,0-.1,0-.15-.05.13.43-.39.93-.21,1.45h-.1a1.23,1.23,0,0,1,.49.15c-.07.18.07.42-.18.39.05-.11,0-.15-.08-.24v.23c-.39,0,0-.3-.23-.41-.06.41,0,.95-.19,1.19-.34-.08.18-.7-.26-.45l.31-.38c-.64.11.15-.25-.51-.17-.34.53-.12.7-.46,1.23.12.2.27.07.39.27,0,.94-1.06.29-.9,1.06.14.24.51.48.12.81l-.29-.3c-.27.53.37.53-.12,1-.09-.16.07-.48,0-.42-.44.25.08.35,0,.64l-.34-.08c-.21.61-.26,1.35-.49,2-.08-.08-.13-.23-.29-.12a7,7,0,0,1-1.33,2.43l.14.42c0,.07-.18.08-.2,0-.24.26.16.09.21.28s-.26.16-.29,0a3.29,3.29,0,0,1-.72,2.2l0-.15c-.3.4.33.74-.1,1v-.1c-.54.91-.76,2.09-1.49,2.65.16.15,0,.37-.11.59s-.15.26.08.47c-.27.08-.34,0-.46-.06l-.18-.15s0,.37-.15.43v-.31l-.38.32a.81.81,0,0,1-.07-.37l-.08.08a.4.4,0,0,1,0,.23.15.15,0,0,1-.23-.18.78.78,0,0,1,.11-.22.32.32,0,0,1-.34-.12c.06,0,.13,0,.17,0h.11c-.15,0-.11-.07,0-.11s.15-.1-.08-.26c0,.09-.18,0-.24.06a1.7,1.7,0,0,0-.37-1.12l.23,0c-.24-.68-.7-1.35-1-2.09a.26.26,0,0,1-.47.19l.26-.22c-.25-.06,0,.28-.36.09-.09-.29.26-.33.42-.22l-.25-.29c.08-.06.16,0,.28,0-.25-.06,0-.71-.36-.77l.08-.06c-.32-.74-.57-1-.85-1.63-.26.1-.31-.16-.6-.25a6.83,6.83,0,0,0-.38-1.58c-.29-.32-.27,0-.49-.12.22-.13,0-.65.26-.45a7.74,7.74,0,0,0-.95-1.52c-.06.13-.06.25-.16.23s0-.38.07-.41l0,0c-.75-.75-.23-2.4-1-2.9l0,0-.58-.64c-.11-.36.27.13.3-.19-.75-.64-.5-1.3-1.05-1.86.47-.82-.85-1.81-.71-2.7L240,180c-.24-.11,0-.26,0-.41-.12.07-.06.26-.2.19a10,10,0,0,1-1-2.37l-.34-1.24a.13.13,0,0,1,.15-.06c.08.07-1.26-.58-.76-.49l.51.35-.11-.09c-.2-.12-.11-.13-.09-.12a.44.44,0,0,0,.29,0l.11,0c-.07,0-.14.12-.15.1-.16.24,0,.08.29.21.06.19-.15.11-.19.26s.54.48.38.7c0,0-.1,0-.14-.07.17.11.29.74.48.48.06.48.46.76.46,1.17.38.1.18.79.61.68-.43.15,0,.89.3,1.07-.16,0,0,.29-.25.26.14.3.34.55.53.41-.25.78.89,1,.39,1.56a23.1,23.1,0,0,1,1.58,2.37c-.43.15-.43-.89-.85-.67.5.7,1.05,1,1.28,1.81,0,.22-.23,0-.33-.07.5.7.61,1.52,1.13,2.11,0,0-.11,0-.18-.1.07.13.08.34.26.25l-.11-.11c.18-.33.8.3,1,.26-.64,0,.16.74-.68.67a.27.27,0,0,0,.33.07c0,.15,0,.22-.24.15.31.44.44.18.62.63-.09,0-.17,0-.29,0a1,1,0,0,1,.63.7c-.06,0-.12.08-.16,0,.3.63.94.89,1.07,1.67-.49,0,0,.3-.35.48l.26.33.1-.22a2.19,2.19,0,0,0,.32.46,1.3,1.3,0,0,1,.29.59l-.28-.26.44.85-.11-.61c.33.29.34-.41.48.19a4.91,4.91,0,0,1,.12.85h0c.16.06.29.05.37.48,0,.28-.19.61-.2.79.21-.3.51,1,.67.5a2.43,2.43,0,0,0-.07.64q.06-.19.11-.39a2.52,2.52,0,0,1,.06.85c.24.65,0-.82.14-.47a.25.25,0,0,1,.09-.09c0,.1,0,.17-.06.38a5.34,5.34,0,0,0,.45-1.1,4.05,4.05,0,0,1,.42-1c.25.37-.23.76,0,1,.23-.63.42-1.36.58-2a7.19,7.19,0,0,1,.53-1.54l-.1.12c-.44-.32.47-.43.39-.89,0,.1.22.23.18.18a5.77,5.77,0,0,0,.47-1.84l.09.14a7.22,7.22,0,0,0,.58-1c-.09-.14,0-.31-.22-.28,1.12-.64.39-2,1.35-2.56,0,.1,0,.29,0,.21l.19-.77c-.24,0-.17,0-.4.12a.68.68,0,0,1,0-.57c0,.38.34.14.52.06-.07,0-.13-.08-.2-.1.54-.21-.4-.25.07-.65l.1.07c0-.22,0-.46.07-.65.28,0,0,.25.22.35.11-.3-.22-.77.14-.93,0,.15-.06.33,0,.48.41-.16.35-.23.49-.42l0,0,.34-.43-.13.09c-.48-.64.2-.79,0-1.46.19.65.2.18.46.33.13-.09.3-.24.35-.16-.13-.33.34-.31.15-.78.1,0,.11-.24.32-.09.06-.33-.19,0-.29-.07-.11-.59.84-.93.7-1.77.07-.65-.18-.88-.1-1.48.22-.12.26.29.26.29a1,1,0,0,0,.34-.78c.05.09.15.06.28,0,.07-.23-.26-.29,0-.52a1.35,1.35,0,0,1,.27.37c0-.29,0-.62,0-.92.19,0,.17.26.23.4.06-.33.19-.84,0-1l-.17.15c0-.11.24,0,.25.14.08.34-.25.34-.34.31l0-.22c-.61,0-.24.8-.44,1.17l-.31-.32.15.53c-.14,0-.37,0-.35-.21-.31.19,0,.3-.28.45,0,0-.06,0-.06,0v.32c-.06-.09-.29-.07-.16-.21-.43.39,0,.9-.41,1v-.05c-.16.72.25.19.37.83l-.84,0,.25.19c0,.06-.12.19-.22.12.08.34.14,0,.26.24-.4.22-.27,1-.75.85.16.21.3-.25.3.17-.52-.11-.09.45-.44.65-.21-.2,0-.43-.3-.22.34.36-.35.55-.38.84.33.16-.1.62-.17,1.09-.1-.08-.53.73-.82,1.08l-.05,0c.3.22.06.61,0,.94a.41.41,0,0,1-.27-.39l-.12.28a.49.49,0,0,1,.06.43l-.22-.18c-.15.38,0,.88-.4,1.3.22.13.82-.1.76.48-.14,0-.36-.11-.36-.27,0,.05,0,.2-.05.27l-.13-.3c-.19.18.13.19,0,.36-.18-.08-.19.07-.32,0s.14-.12.1-.22a.87.87,0,0,1-.5.4c.11,0,.24.1.21.26-.15.38-.27,0-.46.21.09.15-.15.33.12.45,0,.11-.18.08-.28.09,0,.25-.36.92,0,.83l0,0v0h0c0,.75-.72,1.26-.88,1.94l-.09,0c-.05.41-.31.89-.21,1.2,0,.1-.24.11-.32,0,0,.23,0,.39-.2.51,0-.37-.12-.1,0-.32-.16.16-.24-.05-.21.56-.09-.42-.2-.34-.21-.13a.74.74,0,0,0,.13.16.61.61,0,0,1-.14.31l-.08-.67c-.12-.28-.1.23-.18.77-.05.18-.16.1-.14-.64-.1.37,0,.53,0,1a3.69,3.69,0,0,1-.06-.84c0-.3,0-.54,0-.56,0-.4-.3.54-.36.07-.06.15-.22.59-.44.36s.25-.68.37-.64a.1.1,0,0,1,0,.12c.06,0,.12,0,.18-.14l-.09.09c0-.2,0-.38.14-.44-.13,0-.19,0-.2.18a.52.52,0,0,0,0-.17,1.82,1.82,0,0,0-.1-.25,2.31,2.31,0,0,1-.22-.61c0,.1-.13.22-.16.15-.16-.74-.34-.21-.58-.66.05-.33.44-.08.1-.48,0-.33.26-.18.4-.11-.39-.33-.2-.85-.27-1.11l.18.19a1,1,0,0,1-.2-.33l-.16.22c0-.15-.07-.26,0-.3-.2-.07-.32.26-.63.07,0-.22-.35-.48-.08-.67.14.59.26-.19.51.26a.56.56,0,0,1-.14-.33s.07,0,.1,0c0-.64-.43-.1-.66-.65a.23.23,0,0,0,.18-.33c.09.22-.23.22-.44.07,0-.4-.26-.34-.32-.53l0,.24c-.19,0-.25-.19-.4-.41.12-.08.18.18.2.07-.4-.15,0-.74-.32-1,0-.22.3-.15.31-.33-.39-.33,0-.55-.34-.93-.16.22-.1.22-.45,0l.47.67-.52-.33c.09.22.34.41.36.56-.27-.15-.21-.15-.35,0,.2-.44-.45-.52-.38-1l.55-.22c0-.63-.68-.81-.84-1.56v.26c-.25,0-.21-.41-.39-.59.19-.06.2-.22.27-.37-.13.07-.2-.5-.59-.41l.11-.41c-.14-.59-.79-.41-1-1,.27.07.29-.22.58.07-.07-.18-.11-.35-.24-.3.07-.15-.45-.39-.35-.62-.11,0-.31,0-.38-.19a.12.12,0,0,1,.09,0c-.09,0-.26-.26-.38,0,.33-.79-.69-1.51-.41-2.19a12.17,12.17,0,0,1-.65-1.14c.06,0,.09,0,.1,0,0-.56-.65-.07-.7-.7.17-.41.28.23.32,0,.28-.16.2-.3,0-.62a1.62,1.62,0,0,1-.38-1l.09.11a1,1,0,0,0-.11-.41,13.45,13.45,0,0,1-1.65.26s0-.06,0-.1a5.78,5.78,0,0,1-1.83.53c-.07-.25.16-.13-.22-.39-.27,0,.47.41,0,.49-.24-.1-.6-.19-1-.33a.53.53,0,0,1-.25-.08l-.06-.13h.47a1.3,1.3,0,0,0-.72-.15,4.53,4.53,0,0,1,.41.69l-.24-.16c.48,1,1,1.13,1.3,1.93l.1-.08c.6.4-.07.39.41.76a3.31,3.31,0,0,0-.31.27,8.8,8.8,0,0,1,.94,1,3.73,3.73,0,0,1-1-.73c.09.22.35.74.58.77-.07-.07-.21-.15-.19-.26a1.5,1.5,0,0,1,.88.88c-.74.23.32,1.22-.08,1.78.6.66.56,1.59,1,2.48.41-.56.13.26.67,0,.13.2.15.28.13.31l-.06.79c-.1.22-.21-.15-.33-.07.16.48-.15.3-.17.67.17-.15.36,0,.4.33l.1-.48c.58.51-.23.76.35,1.28l-.27-.13c.25.29.53,1.23,1.13,1.36,0,.09-.16.23-.26.1.28.83,1.25,1.57,1.25,2.31h-.16c.1.13.37.15.31.39-.06,0-.16,0-.14.07s.41.29.42.52l-.23-.1c.16.86.9,1,1.28,1.64-.4.17-.27.84-.2,1.18h-.06a9.9,9.9,0,0,0,1.53,2.16c-.21.71.59,1.84.71,2.79,0-.16.32-.12.43,0s.52.42.13.55l0-.07c-.3.31,0,.67.1,1l.51-.16a1.6,1.6,0,0,0,.1.9,6.62,6.62,0,0,0,.42,1c.6,0,1.17-.11,1.63-.12a1,1,0,0,1,.81.25c.37-.13.83-.13,1.11-.26l.12.28.51,0c.18-.35.33-.66.49-1l.24-.57.1-.25.07-.21.13.22c.18-.38-.54-.81-.4-1.17l.43.06c.29-.67.92-1.2.86-2,.05,0,.16.1.12.22.15-.31.8-1.11.21-1.22.35.14.34-.68.34-1.11l.23.17c-.19-.45-.28-.5-.18-1,.08-.09.24,0,.12.11.28-.28-.13-.37.19-.72l.1.22c.17-.34.07-.35,0-.62s.35-.63.6-.58a.42.42,0,0,1-.07-.56c.1,0,.12.11.13.16.43-.5.08-1,.5-1.28a.22.22,0,0,0,.18,0,5,5,0,0,1-.39.78c.24.1.44-.25.64.19,0-.38-.21-1.06.06-1.37h.1v0a.32.32,0,0,0,.06-.25,1,1,0,0,0,.2-.27c.21,0,.29-.38.38-.56-.26-.1-.12-.32-.43-.19,0,0,0,0,0,.18a.25.25,0,0,0,0,.09l0,0-.18.47c-.07-.2-.11-.4.12-.55-.12-.17-.25-.35-.3-.44.47-.1.88-.5,1.13-.47.1-.63.49-1.38.16-1.94,0-.19.22-.12.32-.15s0,.22,0,.3c0-.38.37-1,.06-1.2.33-.34.21.36.4-.22l.07.12c1-.86-.08-2.16,1.14-3.07-.08.07-.12.1-.18.09.91-1.25,1-3,2-4.14.27-.35.07-.48,0-.79h.33a3.81,3.81,0,0,0-.11-.62c0-.36.34-.64.71-1.08s.75-1,.62-1.3l-.36.32.09-.19c-.39,0-1,.09-.72-.11-.08,0-.36.21-.38.11l.16-.16-1.11.27c-.28-.06-.17-.21-.09-.36s.1-.28-.49-.3-1.26.46-1.09.57.36.1.34.26l-.29.08a3,3,0,0,0-.07.69,1.39,1.39,0,0,0,.2.58,2.11,2.11,0,0,1,.32-.28,1.58,1.58,0,0,1,0,.23h-.18c0,.21.12,0,.29-.1a.73.73,0,0,0-.08.25,4.25,4.25,0,0,1,.57-.44c-.15.18-.41.36-.39.46.3-.21.28-.41.62-.54-.09.21-.35.38,0,.2a1.65,1.65,0,0,1-.36.25c.24-.13.31-.08.62-.23l.11-.06c-.42.31,0,.27-.63.51.14-.06.4,0,.37.05-.56,0-.16.28-.72.16a.38.38,0,0,1,.21.11s0,.24-.07.35a2.31,2.31,0,0,0-.2.85s-.07-.12,0-.15c-.15.25-.31.26-.47.4.34.19.25.63.37,1-.49.17-.34-.38-.71-.42.3.11,0,.68.34.68-.32.15-.2.17-.55.16.43.24,0,.26.16.59-.38.26-.46-.09-.49.36C257.16,180.08,257.15,179.67,257.15,179.67Zm-3.27,9.61h0l.07-.2Zm-.34.78a3.29,3.29,0,0,0,.16-.33c.1,0,.18.08.14.16S253.66,190,253.54,190.06Zm2.51-.87c0,.14-.09.16-.15.15a1.94,1.94,0,0,0,.06-.23l0,0A.42.42,0,0,1,256,189.19Z"/><path class="cls-1" d="M255.8,188.82a.21.21,0,0,1,0-.06l-.09,0,.06.08Z"/><path class="cls-1" d="M251.05,189.83h0l.05,0Z"/><path class="cls-1" d="M248.85,198.81v.07s.06,0,.06-.06Z"/><path class="cls-1" d="M253.79,185.91a.14.14,0,0,0,.09,0A.18.18,0,0,0,253.79,185.91Z"/><path class="cls-1" d="M254.64,184.07l.21-.22A1.4,1.4,0,0,0,254.64,184.07Z"/><path class="cls-1" d="M255.38,182.7l-.1-.08h0Z"/><path class="cls-1" d="M243.95,188l0-.05C243.81,187.83,243.86,187.91,243.95,188Z"/><path class="cls-1" d="M247.61,194.87a.51.51,0,0,1-.2-.12C247.47,194.93,247.53,195.07,247.61,194.87Z"/><polygon class="cls-1" points="240.39 180.57 240.4 180.57 240.38 180.52 240.39 180.57"/><path class="cls-1" d="M247.24,194.32a.75.75,0,0,0,.18.43A1.17,1.17,0,0,0,247.24,194.32Z"/><path class="cls-1" d="M258.16,176.56l0-.06,0,0Z"/><path class="cls-1" d="M258.16,176.47v-.09S258.14,176.44,258.16,176.47Z"/><path class="cls-1" d="M258.17,176.19v.19C258.19,176.32,258.23,176.26,258.17,176.19Z"/><path class="cls-1" d="M257.23,178.4l.08.06A.22.22,0,0,0,257.23,178.4Z"/><path class="cls-1" d="M257,179c.08-.13.35-.26.37-.47l-.07,0C257.41,178.61,256.91,178.78,257,179Z"/><path class="cls-1" d="M254.82,180.89l.28-.45c-.14,0-.32.09-.25-.13C254.3,180.78,255.13,180.27,254.82,180.89Z"/><path class="cls-1" d="M254,182.32c.06-.28-.15-.06-.2-.1C253.86,182.42,253.86,182.47,254,182.32Z"/><path class="cls-1" d="M249.48,192.92l-.2-.19C249.27,192.85,249.36,192.81,249.48,192.92Z"/><path class="cls-1" d="M249.27,196.77l.17,0v-.56Z"/><path class="cls-1" d="M248.67,193.36v-.06a.51.51,0,0,1-.05.11Z"/><path class="cls-1" d="M241.76,177.49l-.26.18C241.61,177.79,241.94,177.68,241.76,177.49Z"/><path class="cls-1" d="M236,175.9c-.13.1-.07.48.17.66C236.09,176.28,236.12,176,236,175.9Z"/><polygon class="cls-1" points="246 200.05 245.79 199.82 246.1 200.31 246 200.05"/></g></g></svg>